<svg width="20" height="21" viewBox="0 0 20 21" fill="none" xmlns="http://www.w3.org/2000/svg">
<g opacity="0.1">
<path d="M19.4755 15.1888L16.6786 12.3919C15.6797 11.393 13.9816 11.7926 13.582 13.0911C13.2823 13.9901 12.2834 14.4896 11.3844 14.2898C9.38661 13.7903 6.68957 11.1932 6.19012 9.09547C5.89045 8.19642 6.48979 7.19752 7.3888 6.89788C8.68738 6.49832 9.08694 4.80019 8.08804 3.80128L5.2911 1.00435C4.49198 0.305115 3.29329 0.305115 2.59406 1.00435L0.696143 2.90227C-1.20177 4.90008 0.895924 10.1943 5.59077 14.8891C10.2856 19.584 15.5798 21.7816 17.5776 19.7838L19.4755 17.8858C20.1748 17.0867 20.1748 15.888 19.4755 15.1888Z" fill="#484242"/>
</g>
</svg>
