<svg width="19" height="19" viewBox="0 0 19 19" fill="none" xmlns="http://www.w3.org/2000/svg">
<g clip-path="url(#clip0_2_347)">
<path d="M11.2807 14.844C12.2628 14.844 13.0621 15.6432 13.0621 16.6253C13.0621 17.6074 12.2628 18.4066 11.2807 18.4066C10.2986 18.4066 9.49941 17.6074 9.49941 16.6253C9.49941 15.6432 10.2986 14.844 11.2807 14.844ZM11.2807 17.2191C11.6085 17.2191 11.8745 16.9531 11.8745 16.6253C11.8745 16.2975 11.6085 16.0315 11.2807 16.0315C10.953 16.0315 10.687 16.2975 10.687 16.6253C10.687 16.9531 10.953 17.2191 11.2807 17.2191Z" fill="white"/>
<path d="M4.15549 14.844C5.1376 14.844 5.93683 15.6432 5.93683 16.6253C5.93683 17.6074 5.1376 18.4066 4.15549 18.4066C3.17339 18.4066 2.37416 17.6074 2.37416 16.6253C2.37416 15.6432 3.17339 14.844 4.15549 14.844ZM4.15549 17.2191C4.48326 17.2191 4.74927 16.9531 4.74927 16.6253C4.74927 16.2975 4.48326 16.0315 4.15549 16.0315C3.82773 16.0315 3.56172 16.2975 3.56172 16.6253C3.56172 16.9531 3.82773 17.2191 4.15549 17.2191Z" fill="white"/>
<path d="M0.138052 3.18218C0.249683 3.0468 0.41713 2.96842 0.592888 2.96842H14.549L15.0656 1.03389C15.1345 0.77382 15.3696 0.593311 15.6392 0.593311H18.4062C18.734 0.593311 19 0.859324 19 1.18709C19 1.51485 18.734 1.78087 18.4062 1.78087H16.0952L13.042 13.2158C12.9732 13.4759 12.738 13.6564 12.4684 13.6564H2.968C2.64023 13.6564 2.37422 13.3904 2.37422 13.0626C2.37422 12.7349 2.64023 12.4689 2.968 12.4689H12.0124L12.3604 11.1649L1.75432 10.6875C1.47762 10.6745 1.24604 10.4726 1.19735 10.2006L0.00979614 3.66908C-0.0222664 3.4957 0.0252342 3.31756 0.138052 3.18218ZM2.27922 9.52254L12.6751 9.99044L14.232 4.15598H1.30423L2.27922 9.52254Z" fill="white"/>
</g>
<defs>
<clipPath id="clip0_2_347">
<rect width="19" height="19" fill="white" transform="matrix(-1 0 0 1 19 0)"/>
</clipPath>
</defs>
</svg>
