<svg width="14" height="14" viewBox="0 0 14 14" fill="none" xmlns="http://www.w3.org/2000/svg">
<path d="M9.8454 6.96313C9.8454 8.52685 8.57116 9.79443 6.99924 9.79443C5.42731 9.79443 4.15308 8.52685 4.15308 6.96313C4.15308 5.39942 5.42731 4.13184 6.99924 4.13184C8.57116 4.13184 9.8454 5.39942 9.8454 6.96313Z" fill="#DB3559"/>
<path d="M13.6563 1.95387C13.5194 1.58508 13.3012 1.25127 13.0176 0.977274C12.7421 0.695151 12.4068 0.478029 12.0358 0.341933C11.7349 0.225698 11.283 0.0873453 10.4505 0.0496537C9.54994 0.00880225 9.27994 0 7.00011 0C4.72006 0 4.45006 0.00857655 3.54975 0.049428C2.71727 0.0873453 2.26508 0.225698 1.96444 0.341933C1.59347 0.478029 1.2579 0.695151 0.982675 0.977274C0.699058 1.25127 0.480787 1.58485 0.343743 1.95387C0.226893 2.25315 0.0878077 2.70296 0.0499165 3.53105C0.00884885 4.42662 0 4.6952 0 6.96325C0 9.23106 0.00884885 9.49965 0.0499165 10.3954C0.0878077 11.2235 0.226893 11.6731 0.343743 11.9724C0.480787 12.3414 0.698831 12.675 0.982448 12.949C1.2579 13.2311 1.59325 13.4482 1.96422 13.5843C2.26508 13.7008 2.71727 13.8391 3.54975 13.8768C4.45006 13.9177 4.71984 13.9263 6.99989 13.9263C9.28016 13.9263 9.55017 13.9177 10.4503 13.8768C11.2827 13.8391 11.7349 13.7008 12.0358 13.5843C12.7804 13.2986 13.369 12.7131 13.6563 11.9724C13.7731 11.6731 13.9122 11.2235 13.9503 10.3954C13.9914 9.49965 14 9.23106 14 6.96325C14 4.6952 13.9914 4.42662 13.9503 3.53105C13.9124 2.70296 13.7733 2.25315 13.6563 1.95387ZM7.00011 11.3244C4.57848 11.3244 2.6154 9.3719 2.6154 6.96302C2.6154 4.55414 4.57848 2.60163 7.00011 2.60163C9.42152 2.60163 11.3846 4.55414 11.3846 6.96302C11.3846 9.3719 9.42152 11.3244 7.00011 11.3244ZM11.5579 3.44845C10.9921 3.44845 10.5333 2.99208 10.5333 2.42919C10.5333 1.8663 10.9921 1.40994 11.5579 1.40994C12.1238 1.40994 12.5826 1.8663 12.5826 2.42919C12.5824 2.99208 12.1238 3.44845 11.5579 3.44845Z" fill="#DB3559"/>
</svg>
