<svg width="72" height="67" viewBox="0 0 72 67" fill="none" xmlns="http://www.w3.org/2000/svg">
<path d="M67.6196 5.8273C67.1813 4.24679 66.2372 2.85343 64.9318 1.86042C63.6264 0.867411 62.0316 0.32945 60.3915 0.328858H11.6086C9.96825 0.328515 8.37301 0.866121 7.06743 1.85927C5.76185 2.85242 4.81799 4.24632 4.38051 5.8273C2.71411 11.8179 0.731293 19.482 0.731293 21.9992C0.853016 23.5679 1.49662 25.0506 2.55942 26.2109C3.56049 27.2275 4.81808 27.9543 6.19879 28.3139C6.35218 28.3504 6.489 28.437 6.58759 28.5601C6.68617 28.6831 6.74087 28.8355 6.74301 28.9932V57.7144C6.74394 58.0868 6.89251 58.4435 7.15613 58.7065C7.41976 58.9695 7.77691 59.1171 8.14926 59.1171H63.8086C64.1816 59.1171 64.5393 58.969 64.803 58.7053C65.0667 58.4415 65.2149 58.0839 65.2149 57.7109V29.0023C65.2174 28.8438 65.2727 28.6906 65.372 28.5671C65.4713 28.4436 65.6091 28.3567 65.7633 28.3203C67.1591 27.967 68.4311 27.2374 69.4407 26.2109C70.5035 25.0506 71.1471 23.5679 71.2688 21.9992C71.2688 19.482 69.286 11.8179 67.6196 5.8273ZM19.2305 50.4617C18.8671 50.4623 18.5072 50.3913 18.1712 50.2528C17.8353 50.1142 17.5299 49.9108 17.2726 49.6542C17.0154 49.3976 16.8112 49.0927 16.6718 48.7571C16.5324 48.4216 16.4605 48.0618 16.4602 47.6984V46.7492H22.3243L23.175 50.4617H19.2305ZM46.6454 50.4617H25.3055C25.3055 50.3843 24.4899 46.7492 24.4899 46.7492H47.468C47.468 46.7492 46.6454 50.3843 46.6454 50.4617ZM55.4977 47.6984C55.4974 48.0618 55.4255 48.4216 55.2861 48.7571C55.1467 49.0927 54.9425 49.3976 54.6853 49.6542C54.428 49.9108 54.1226 50.1142 53.7867 50.2528C53.4507 50.3913 53.0908 50.4623 52.7274 50.4617H48.7829L49.6336 46.7492H55.4977V47.6984ZM57.4946 44.6398H14.4633C14.0624 44.6398 13.6779 44.4805 13.3944 44.197C13.1109 43.9135 12.9516 43.529 12.9516 43.1281C12.9516 42.7271 13.1109 42.3426 13.3944 42.0591C13.6779 41.7756 14.0624 41.6164 14.4633 41.6164H57.4946C57.8955 41.6164 58.28 41.7756 58.5635 42.0591C58.847 42.3426 59.0063 42.7271 59.0063 43.1281C59.0063 43.529 58.847 43.9135 58.5635 44.197C58.28 44.4805 57.8955 44.6398 57.4946 44.6398ZM16.4602 37.7632V26.2039C17.2772 27.0291 18.2643 27.6664 19.3526 28.0714C20.441 28.4765 21.6045 28.6395 22.7623 28.5491C23.92 28.4588 25.0442 28.1173 26.0566 27.5483C27.0689 26.9794 27.9451 26.1966 28.6243 25.2546C28.674 25.1811 28.7411 25.1208 28.8195 25.0791C28.898 25.0374 28.9854 25.0156 29.0743 25.0156C29.164 25.0161 29.2523 25.0381 29.3318 25.0796C29.4113 25.1212 29.4797 25.1812 29.5313 25.2546C31.8446 28.4609 36.0704 29.5929 40.0922 27.5468C41.0589 26.9984 41.8715 26.2148 42.4547 25.2687C42.5061 25.1903 42.5759 25.1255 42.658 25.0802C42.7401 25.0349 42.8321 25.0103 42.9258 25.0085C43.0162 25.0098 43.1049 25.0329 43.1844 25.0757C43.264 25.1186 43.332 25.1799 43.3829 25.2546C44.0583 26.1925 44.9292 26.9725 45.9355 27.5409C46.9418 28.1093 48.0596 28.4525 49.2114 28.5468C50.3633 28.641 51.522 28.4841 52.6073 28.0869C53.6926 27.6897 54.6788 27.0616 55.4977 26.246V37.7632C55.4983 38.2247 55.3157 38.6674 54.9901 38.9944C54.6645 39.3213 54.2224 39.5057 53.761 39.507H18.1969C17.7355 39.5057 17.2934 39.3213 16.9678 38.9944C16.6422 38.6674 16.4596 38.2247 16.4602 37.7632ZM67.9501 24.7273C67.3464 25.3334 66.6181 25.801 65.8158 26.0977C65.0134 26.3943 64.1562 26.513 63.3034 26.4455C62.4506 26.3779 61.6227 26.1257 60.8771 25.7064C60.1315 25.2871 59.4859 24.7107 58.9852 24.0171C58.7397 23.6715 58.4149 23.3896 58.0382 23.1951C57.6614 23.0006 57.2436 22.8991 56.8196 22.8991C56.3956 22.8991 55.9777 23.0006 55.601 23.1951C55.2242 23.3896 54.8995 23.6715 54.654 24.0171C54.1077 24.7745 53.3894 25.3913 52.5582 25.8166C51.7269 26.242 50.8065 26.4639 49.8727 26.4639C48.9389 26.4639 48.0185 26.242 47.1872 25.8166C46.356 25.3913 45.6377 24.7745 45.0915 24.0171C44.8459 23.6715 44.5212 23.3896 44.1444 23.1951C43.7677 23.0006 43.3498 22.8991 42.9258 22.8991C42.5018 22.8991 42.084 23.0006 41.7072 23.1951C41.3305 23.3896 41.0057 23.6715 40.7602 24.0171C40.213 24.7735 39.4945 25.3895 38.6635 25.8148C37.8324 26.2401 36.9125 26.4626 35.979 26.464C35.0509 26.4652 34.136 26.2436 33.3114 25.8178C32.4867 25.3921 31.7763 24.7745 31.2399 24.0171C30.993 23.6734 30.6678 23.3933 30.2912 23.2001C29.9147 23.0069 29.4975 22.9062 29.0743 22.9062C28.651 22.9062 28.2339 23.0069 27.8573 23.2001C27.4807 23.3933 27.1555 23.6734 26.9086 24.0171C26.3624 24.7745 25.6441 25.3913 24.8128 25.8166C23.9816 26.242 23.0612 26.4639 22.1274 26.4639C21.1936 26.4639 20.2732 26.242 19.4419 25.8166C18.6107 25.3913 17.8924 24.7745 17.3461 24.0171C17.1006 23.6715 16.7759 23.3896 16.3991 23.1951C16.0224 23.0006 15.6045 22.8991 15.1805 22.8991C14.7565 22.8991 14.3387 23.0006 13.9619 23.1951C13.5852 23.3896 13.2604 23.6715 13.0149 24.0171C12.5142 24.7107 11.8686 25.2871 11.123 25.7064C10.3774 26.1257 9.54947 26.3779 8.6967 26.4455C7.84393 26.513 6.98667 26.3943 6.18432 26.0977C5.38197 25.801 4.65372 25.3334 4.05004 24.7273C3.38414 23.9587 2.96301 23.0087 2.84067 21.9992C2.84067 20.2484 4.14145 14.5601 6.41254 6.38979C6.73111 5.25434 7.4117 4.25394 8.35085 3.54069C9.29001 2.82744 10.4364 2.44034 11.6157 2.43823H60.3844C61.5637 2.44034 62.7101 2.82744 63.6492 3.54069C64.5884 4.25394 65.269 5.25434 65.5876 6.38979C67.8586 14.5601 69.1594 20.2484 69.1594 21.9992C69.0371 23.0087 68.616 23.9587 67.9501 24.7273ZM66.3188 61.2265H5.79379C5.0645 61.211 4.35659 61.4734 3.81348 61.9603C3.27037 62.4473 2.93267 63.1225 2.86879 63.8492C2.84865 64.2246 2.90517 64.6003 3.03491 64.9532C3.16465 65.3061 3.3649 65.6289 3.62344 65.9019C3.88198 66.1749 4.19341 66.3924 4.53874 66.5412C4.88407 66.6899 5.25607 66.7668 5.63207 66.7671H66.1641C66.8929 66.7808 67.5998 66.5178 68.1425 66.0312C68.6852 65.5446 69.0235 64.8704 69.0891 64.1445C69.1085 63.7686 69.0512 63.3927 68.9207 63.0397C68.7902 62.6867 68.5893 62.3639 68.3302 62.0909C68.0711 61.818 67.7591 61.6006 67.4133 61.452C67.0676 61.3034 66.6952 61.2267 66.3188 61.2265Z" fill="#DB3559"/>
</svg>
