<svg width="54" height="80" viewBox="0 0 54 80" fill="none" xmlns="http://www.w3.org/2000/svg">
<path d="M28.125 38.0432C27.9562 38.0432 27.7899 38.0836 27.64 38.1612C27.4901 38.2388 27.3611 38.3512 27.2636 38.489C27.1814 38.5183 27.0963 38.5388 27.0098 38.5502C26.9185 38.5396 26.8287 38.5191 26.7419 38.489C26.6127 38.3061 26.4286 38.1691 26.2163 38.0978C26.004 38.0265 25.7746 38.0247 25.5611 38.0925C25.3477 38.1603 25.1614 38.2943 25.0293 38.4751C24.8971 38.6558 24.8258 38.874 24.8259 39.0979C24.8259 40.2658 26.3207 40.6595 27.0056 40.6595C27.6904 40.6595 29.1853 40.2658 29.1853 39.0979C29.1853 38.9589 29.1578 38.8213 29.1044 38.693C29.0511 38.5646 28.9729 38.4481 28.8744 38.3501C28.7758 38.2521 28.6589 38.1745 28.5303 38.1219C28.4017 38.0692 28.2639 38.0425 28.125 38.0432Z" fill="#DB3559"/>
<path d="M38.9813 26.448C37.8898 26.0084 36.7211 25.7926 35.5447 25.8137C34.3682 25.8347 33.2079 26.092 32.1329 26.5703C31.9187 26.6768 31.7505 26.8577 31.66 27.0791C31.5694 27.3005 31.5625 27.5473 31.6407 27.7734C31.7187 28.0108 31.884 28.2097 32.1033 28.3297C32.3225 28.4497 32.5792 28.4818 32.8212 28.4195C34.3923 27.9686 36.027 27.7799 37.6594 27.8613C38.8238 28.0019 39.2548 27.6834 39.3976 27.3367C39.4559 27.1635 39.4452 26.9744 39.3677 26.8089C39.2901 26.6434 39.1517 26.5141 38.9813 26.448Z" fill="#DB3559"/>
<path d="M20.9967 35.6581C20.8587 35.6584 20.7219 35.6315 20.5943 35.5789C20.4666 35.5262 20.3506 35.449 20.2528 35.3515C19.6017 34.7032 17.5922 35 16.9727 35.4331C16.8595 35.5142 16.7312 35.5721 16.5955 35.6034C16.4597 35.6347 16.3191 35.6388 16.1817 35.6155C16.0443 35.5921 15.9129 35.5418 15.7951 35.4673C15.6774 35.3929 15.5755 35.2959 15.4954 35.1818C15.4153 35.0678 15.3586 34.939 15.3286 34.803C15.2986 34.6669 15.2958 34.5262 15.3205 34.3891C15.3451 34.252 15.3967 34.1211 15.4723 34.004C15.5478 33.8869 15.6458 33.7859 15.7606 33.7069C16.9664 32.8632 20.1516 32.2747 21.7406 33.856C21.8886 34.0033 21.9895 34.1912 22.0306 34.3959C22.0717 34.6006 22.0511 34.8129 21.9714 35.0058C21.8917 35.1988 21.7566 35.3638 21.5831 35.4799C21.4096 35.596 21.2055 35.658 20.9967 35.6581Z" fill="#DB3559"/>
<path d="M33.0034 35.6582C32.7946 35.6581 32.5905 35.5961 32.417 35.48C32.2435 35.3639 32.1083 35.1989 32.0287 35.0059C31.949 34.813 31.9284 34.6007 31.9695 34.396C32.0106 34.1913 32.1115 34.0034 32.2594 33.8561C33.8471 32.2748 37.0344 32.8605 38.236 33.707C38.3508 33.786 38.4488 33.887 38.5243 34.0041C38.5999 34.1212 38.6514 34.2521 38.6761 34.3892C38.7007 34.5263 38.698 34.667 38.668 34.8031C38.6379 34.9391 38.5813 35.0679 38.5012 35.1819C38.4211 35.296 38.3192 35.393 38.2014 35.4674C38.0836 35.5419 37.9522 35.5922 37.8149 35.6156C37.6775 35.6389 37.5369 35.6348 37.4011 35.6035C37.2653 35.5722 37.1371 35.5143 37.0238 35.4332C36.4044 34.998 34.3955 34.7033 33.7437 35.3516C33.5471 35.5476 33.281 35.6578 33.0034 35.6582Z" fill="#DB3559"/>
<path d="M5.3529 54.4021C4.44455 55.3103 3.93421 56.5422 3.93414 57.8267C3.93411 58.4628 4.05935 59.0926 4.30272 59.6802C4.54609 60.2678 4.90282 60.8018 5.35254 61.2515C5.80227 61.7013 6.33617 62.0581 6.92378 62.3015C7.51138 62.545 8.14118 62.6703 8.77722 62.6703C10.0617 62.6704 11.2937 62.1601 12.202 61.2519C13.1745 60.198 13.8473 58.9031 14.1504 57.5014C14.5448 55.7239 14.2467 54.2298 13.3109 53.2939C11.3238 51.3062 7.17821 52.5767 5.3529 54.4021Z" fill="#DB3559"/>
<path d="M48.647 54.4021C46.8189 52.5739 42.6754 51.3083 40.6891 53.2939C39.7532 54.2298 39.4551 55.7239 39.8495 57.5014C40.1527 58.9031 40.8254 60.198 41.7979 61.2519C42.7062 62.1602 43.9382 62.6704 45.2227 62.6703C46.5072 62.6702 47.7391 62.1599 48.6474 61.2516C49.5556 60.3432 50.0659 59.1113 50.0658 57.8267C50.0657 56.5422 49.5554 55.3103 48.647 54.4021Z" fill="#DB3559"/>
<path d="M52.8004 32.5876C52.6115 32.1758 52.5671 31.7122 52.6746 31.272C53.5158 27.6241 53.5522 23.8366 52.7811 20.1731C52.01 16.5097 50.4501 13.0582 48.2097 10.0588C43.3828 3.67017 35.8495 0.151733 27 0.151733C18.1504 0.151733 10.6171 3.66736 5.78949 10.0595C3.54963 13.059 1.99006 16.5104 1.21925 20.1737C0.448433 23.837 0.484881 27.6243 1.32605 31.272C1.4329 31.7123 1.38831 32.1758 1.19949 32.5876C0.817084 33.5441 0.643111 34.5711 0.689186 35.6001C0.73526 36.6292 1.00032 37.6366 1.46668 38.555C2.60504 40.9639 4.81355 43.0698 7.42848 43.0698C7.74513 43.0678 8.06086 43.0356 8.37137 42.9734C9.08994 46.3127 10.6633 49.4081 12.9375 51.9566C14.9364 54.0659 17.943 55.7823 21.8671 57.095C21.4066 59.1341 19.7641 60.0756 16.9017 61.5367C15.9813 62.0063 15.0307 62.4915 14.0231 63.0835C11.2275 64.6434 8.83648 66.8367 7.04176 69.4876C5.88512 71.386 6.51441 73.6009 8.72574 75.4177C11.3273 77.5588 17.4965 79.8474 27 79.8474C36.5034 79.8474 42.6705 77.5602 45.2735 75.4177C47.4855 73.6002 48.1148 71.3832 46.961 69.4869C45.1663 66.836 42.7752 64.6427 39.9796 63.0828C38.9721 62.4887 38.0214 62.0035 37.1011 61.5359C34.2386 60.0749 32.5961 59.1327 32.1356 57.0943C36.0555 55.7823 39.0621 54.0624 41.0625 51.9566C43.3334 49.4066 44.9033 46.3108 45.6187 42.972C45.9323 43.036 46.2514 43.0688 46.5714 43.0698C49.1857 43.0698 51.3949 40.9604 52.5332 38.5557C52.9997 37.6372 53.2648 36.6297 53.3109 35.6005C53.357 34.5713 53.1829 33.5442 52.8004 32.5876ZM3.37074 37.6501C2.5523 35.919 2.4609 33.6078 3.86926 32.5405C4.8126 31.9994 5.92203 31.8242 6.98621 32.0483C7.0284 32.5545 7.1641 34.4052 7.19715 34.7905C6.59593 34.5517 5.95041 34.445 5.30434 34.4776C5.02896 34.5038 4.77511 34.6378 4.5981 34.8504C4.42109 35.063 4.33527 35.3369 4.35933 35.6124C4.38408 35.8884 4.51543 36.1438 4.7255 36.3245C4.93556 36.5051 5.20779 36.5968 5.48434 36.5799C5.86349 36.575 6.23849 36.6592 6.57912 36.8258C6.91974 36.9924 7.21646 37.2367 7.44535 37.539C7.56348 38.6274 7.71887 39.7588 7.9298 40.9077C5.75504 41.2817 4.07387 39.1351 3.37496 37.6536L3.37074 37.6501ZM27.9189 74.1015C27.6262 74.3139 27.2672 74.415 26.9066 74.3865C26.546 74.3581 26.2073 74.2019 25.9515 73.9462C25.6956 73.6904 25.5394 73.3518 25.5108 72.9912C25.4822 72.6306 25.5832 72.2716 25.7955 71.9788C25.8684 71.8637 25.9659 71.7662 26.081 71.6933C26.3738 71.4809 26.7327 71.3798 27.0933 71.4083C27.454 71.4367 27.7926 71.5929 28.0484 71.8486C28.3043 72.1044 28.4605 72.443 28.4891 72.8036C28.5177 73.1642 28.4168 73.5232 28.2044 73.816C28.1317 73.9313 28.0342 74.0288 27.9189 74.1015ZM33.1825 62.7038C33.2041 62.6796 33.2323 62.6621 33.2635 62.6535C33.2948 62.6449 33.328 62.6456 33.3589 62.6554C33.3898 62.6652 33.4172 62.6838 33.4379 62.7088C33.4585 62.7339 33.4714 62.7644 33.475 62.7966C33.5388 63.3088 33.4878 63.8286 33.3259 64.3186C33.1639 64.8086 32.8949 65.2564 32.5385 65.6295C31.4093 66.7264 29.4349 66.8249 27.1469 65.8869C27.0526 65.849 26.9473 65.849 26.853 65.8869C24.5643 66.8227 22.5893 66.7264 21.4614 65.6295C21.1048 65.2561 20.8356 64.808 20.6737 64.3176C20.5117 63.8272 20.4608 63.307 20.5249 62.7945C20.5288 62.7624 20.5419 62.732 20.5627 62.7071C20.5834 62.6822 20.6109 62.6637 20.6418 62.654C20.6727 62.6443 20.7058 62.6437 20.7371 62.6523C20.7683 62.6609 20.7965 62.6783 20.8181 62.7024C22.154 64.0862 24.6375 64.8856 27 64.8856C29.3625 64.8856 31.8459 64.0876 33.1825 62.7038ZM22.0275 60.8314C22.9535 60.0089 23.6057 58.9227 23.8964 57.7187C24.1776 57.796 24.4413 57.8783 24.7282 57.9521C26.2181 58.3365 27.7812 58.3365 29.2711 57.9521C29.5579 57.8783 29.8251 57.796 30.1036 57.718C30.3934 58.9229 31.0454 60.0102 31.9718 60.8335C31.4901 61.7891 29.3955 62.7798 27 62.7798C24.6044 62.7798 22.5098 61.7863 22.0275 60.8314ZM44.7813 33.4201C44.4297 38.394 43.889 45.9104 39.5296 50.506C37.3232 52.8341 33.6424 54.665 28.5939 55.9468C27.5476 56.2119 26.4516 56.2119 25.4053 55.9468C20.3575 54.665 16.6767 52.8341 14.4696 50.506C10.1102 45.9076 9.5716 38.4502 9.21723 33.5143C9.20035 33.2837 9.18418 33.0713 9.16801 32.852C9.66739 32.9201 10.1708 32.9546 10.6748 32.9553C12.0953 32.9213 13.4597 32.3943 14.5343 31.4647C14.6429 31.3774 14.7745 31.3232 14.9132 31.3087C15.0519 31.2943 15.1918 31.3201 15.3161 31.3831C17.227 32.1951 19.3456 32.3824 21.3693 31.9182C23.7705 31.4724 31.7608 29.2049 33.75 18.6952C33.7576 18.613 33.793 18.5358 33.8504 18.4764C33.9078 18.4169 33.9837 18.3788 34.0657 18.3683C34.4334 18.3163 34.9839 18.6967 35.4114 19.6283C36.4183 21.8185 37.1158 23.7226 37.7318 25.4024C38.9636 28.7682 39.8531 31.1996 42.1157 32.2824C42.7246 32.573 43.3909 32.7229 44.0655 32.7212C44.3248 32.7188 44.5835 32.6953 44.8389 32.6509C44.82 32.8984 44.801 33.1508 44.7813 33.4201ZM50.625 37.6543C49.9218 39.1372 48.2343 41.2874 46.0596 40.9027C46.2705 39.7588 46.4252 38.6324 46.544 37.5467C46.7729 37.2454 47.0686 37.0011 47.4077 36.8331C47.7468 36.6651 48.1203 36.578 48.4987 36.5785C48.7772 36.6045 49.0547 36.5189 49.27 36.3403C49.4853 36.1618 49.6209 35.905 49.6469 35.6265C49.6729 35.348 49.5872 35.0706 49.4087 34.8552C49.2302 34.6399 48.9734 34.5043 48.6949 34.4783C48.0465 34.4485 47.3993 34.5576 46.7964 34.7982C46.8281 34.3763 46.9631 32.5278 47.0018 32.0497C48.0691 31.8231 49.1825 31.9983 50.1286 32.5419C51.539 33.6113 51.4448 35.9218 50.625 37.6543Z" fill="#DB3559"/>
<path d="M33.6973 44.2954C33.6705 44.2495 33.6402 44.2057 33.6066 44.1646C33.5393 43.5204 33.2707 42.9138 32.839 42.431C32.4072 41.9483 31.8343 41.6138 31.2016 41.4753C30.5689 41.3368 29.9087 41.4012 29.3147 41.6595C28.7207 41.9177 28.2232 42.3566 27.893 42.9137L26.4375 45.3578C24.7795 45.2325 23.1719 44.7307 21.7371 43.8904C21.4937 43.7616 21.2096 43.7332 20.9455 43.8111C20.6813 43.8891 20.4582 44.0672 20.3237 44.3075C20.1891 44.5478 20.1539 44.8312 20.2256 45.0971C20.2972 45.3629 20.47 45.5903 20.707 45.7305C22.6055 46.8781 24.7816 47.4848 27 47.4848C29.2184 47.4848 31.3945 46.8781 33.293 45.7305C33.5368 45.5937 33.7164 45.3657 33.7922 45.0966C33.868 44.8275 33.8339 44.5393 33.6973 44.2954Z" fill="#DB3559"/>
</svg>
