<svg width="72" height="69" viewBox="0 0 72 69" fill="none" xmlns="http://www.w3.org/2000/svg">
<path d="M40.299 59.5735L38.8229 59.3591C38.8046 59.3562 38.7874 59.349 38.7725 59.338C38.7577 59.327 38.7457 59.3125 38.7377 59.2959L38.0768 57.9593C37.8854 57.5717 37.5894 57.2454 37.2223 57.0172C36.8552 56.789 36.4315 56.6681 35.9992 56.6681C35.567 56.6681 35.1433 56.789 34.7762 57.0172C34.409 57.2454 34.113 57.5717 33.9217 57.9593L33.2607 59.2959C33.2527 59.3126 33.2406 59.3272 33.2256 59.3382C33.2107 59.3492 33.1932 59.3563 33.1748 59.3591L31.6995 59.5735C31.2715 59.6356 30.8695 59.8161 30.5388 60.0948C30.2082 60.3735 29.9621 60.7391 29.8285 61.1504C29.6948 61.5616 29.6789 62.0021 29.7826 62.4219C29.8863 62.8417 30.1053 63.2241 30.415 63.5259L31.4828 64.565C31.496 64.5782 31.5059 64.5943 31.5117 64.6121C31.5174 64.6298 31.5189 64.6487 31.5159 64.6671L31.264 66.1359C31.1895 66.5623 31.2362 67.0011 31.3987 67.4024C31.5611 67.8037 31.8329 68.1513 32.1831 68.4058C32.5333 68.6603 32.9479 68.8115 33.3797 68.8421C33.8116 68.8728 34.2433 68.7816 34.626 68.5791L35.9478 67.8859C35.9642 67.8772 35.9825 67.8727 36.0011 67.8727C36.0196 67.8727 36.0379 67.8772 36.0543 67.8859L37.3762 68.5799C37.7589 68.7811 38.1902 68.8712 38.6215 68.8401C39.0527 68.809 39.4666 68.6578 39.8164 68.4037C40.1662 68.1495 40.4379 67.8026 40.6008 67.4021C40.7637 67.0016 40.8113 66.5635 40.7382 66.1373L40.4863 64.6686C40.4833 64.6507 40.4847 64.6323 40.4903 64.6151C40.4959 64.5978 40.5056 64.5822 40.5186 64.5694L41.5871 63.5281C41.8975 63.2262 42.1171 62.8433 42.221 62.4229C42.3248 62.0025 42.3088 61.5614 42.1747 61.1496C42.0406 60.7379 41.7937 60.372 41.4622 60.0934C41.1307 59.8148 40.7277 59.6347 40.299 59.5735Z" fill="#DB3559"/>
<path d="M55.3567 56.7439L54.6693 56.644L54.3594 56.0205C54.2085 55.7143 53.9749 55.4564 53.685 55.2761C53.3951 55.0958 53.0605 55.0002 52.7192 55.0002C52.3778 55.0002 52.0432 55.0958 51.7533 55.2761C51.4635 55.4564 51.2298 55.7143 51.0789 56.0205L50.772 56.644L50.0839 56.7439C49.7454 56.7925 49.4275 56.9351 49.166 57.1554C48.9045 57.3757 48.7101 57.6649 48.6047 57.9902C48.4993 58.3154 48.4872 58.6637 48.5698 58.9955C48.6524 59.3273 48.8263 59.6293 49.0719 59.8672L49.5705 60.3526L49.4523 61.0385C49.395 61.3749 49.4328 61.7206 49.5616 62.0365C49.6904 62.3525 49.9049 62.6262 50.1811 62.8267C50.4572 63.0272 50.7838 63.1465 51.1242 63.1712C51.4645 63.1958 51.8049 63.1248 52.1071 62.9662L52.7225 62.6424L53.3371 62.9662C53.6393 63.1248 53.9797 63.1958 54.32 63.1712C54.6604 63.1465 54.987 63.0272 55.2631 62.8267C55.5393 62.6262 55.7538 62.3525 55.8826 62.0365C56.0114 61.7206 56.0492 61.3749 55.9919 61.0385L55.8744 60.3526L56.3716 59.8672C56.6161 59.629 56.7891 59.3271 56.8709 58.9957C56.9527 58.6643 56.9402 58.3166 56.8347 57.9919C56.7291 57.6673 56.5348 57.3787 56.2737 57.1588C56.0127 56.9388 55.6952 56.7964 55.3574 56.7475L55.3567 56.7439Z" fill="#DB3559"/>
<path d="M71.0474 53.5818C70.9427 53.2566 70.7486 52.9675 70.4873 52.7475C70.226 52.5275 69.908 52.3855 69.5698 52.3378L68.8817 52.2379L68.5732 51.6144C68.4224 51.3084 68.1889 51.0507 67.8991 50.8704C67.6094 50.6902 67.275 50.5947 66.9338 50.5947C66.5925 50.5947 66.2581 50.6902 65.9684 50.8704C65.6786 51.0507 65.4451 51.3084 65.2943 51.6144L64.9858 52.2386L64.2977 52.3385C63.96 52.3876 63.6428 52.5302 63.3819 52.7502C63.121 52.9701 62.9269 53.2587 62.8214 53.5832C62.7159 53.9077 62.7032 54.2553 62.7849 54.5866C62.8666 54.918 63.0393 55.2198 63.2835 55.4581L63.7822 55.9443L63.6647 56.628C63.6068 56.9644 63.6443 57.3104 63.7728 57.6267C63.9014 57.9429 64.1158 58.2169 64.392 58.4177C64.6681 58.6184 64.9949 58.7378 65.3354 58.7625C65.6759 58.7872 66.0165 58.716 66.3187 58.5572L66.9341 58.2333L67.5495 58.5572C67.8517 58.716 68.1922 58.7871 68.5326 58.7624C68.873 58.7378 69.1997 58.6184 69.4759 58.4178C69.752 58.2171 69.9665 57.9433 70.0951 57.6271C70.2237 57.311 70.2612 56.9651 70.2036 56.6287L70.0853 55.9436L70.584 55.4581C70.8296 55.2204 71.0033 54.9184 71.0852 54.5865C71.1672 54.2547 71.154 53.9065 71.0474 53.5818Z" fill="#DB3559"/>
<path d="M21.914 56.7439L21.2266 56.644L20.9197 56.0206C20.7686 55.7144 20.5349 55.4566 20.245 55.2763C19.9551 55.096 19.6205 55.0005 19.2791 55.0005C18.9377 55.0005 18.6031 55.096 18.3131 55.2763C18.0232 55.4566 17.7895 55.7144 17.6385 56.0206L17.3315 56.644L16.6434 56.7439C16.3047 56.7922 15.9864 56.9344 15.7245 57.1545C15.4627 57.3747 15.2679 57.6638 15.1621 57.9891C15.0564 58.3145 15.0441 58.6629 15.1265 58.9949C15.209 59.3269 15.3829 59.6291 15.6285 59.8672L16.1264 60.3527L16.0089 61.0386C15.9516 61.3749 15.9894 61.7206 16.1182 62.0366C16.247 62.3526 16.4615 62.6263 16.7377 62.8268C17.0138 63.0273 17.3404 63.1466 17.6808 63.1713C18.0211 63.1959 18.3615 63.1249 18.6637 62.9663L19.2783 62.6424L19.8937 62.9663C20.1958 63.1249 20.5363 63.1959 20.8766 63.1713C21.217 63.1466 21.5436 63.0273 21.8197 62.8268C22.0958 62.6263 22.3104 62.3526 22.4392 62.0366C22.568 61.7206 22.6058 61.3749 22.5485 61.0386L22.4303 60.3527L22.9282 59.8672C23.1727 59.629 23.3457 59.3272 23.4275 58.9958C23.5093 58.6644 23.4968 58.3167 23.3912 57.992C23.2857 57.6674 23.0914 57.3788 22.8303 57.1588C22.5693 56.9389 22.2518 56.7965 21.914 56.7476V56.7439Z" fill="#DB3559"/>
<path d="M7.70159 52.3378L7.01421 52.2379L6.70577 51.6137C6.55491 51.3076 6.32139 51.0499 6.03165 50.8697C5.7419 50.6895 5.4075 50.594 5.06628 50.594C4.72507 50.594 4.39067 50.6895 4.10092 50.8697C3.81117 51.0499 3.57766 51.3076 3.42679 51.6137L3.11835 52.2379L2.42951 52.3378C2.09173 52.3868 1.7744 52.5293 1.51342 52.7493C1.25244 52.9692 1.05824 53.2579 0.952787 53.5825C0.847332 53.9071 0.834835 54.2547 0.91671 54.5861C0.998585 54.9174 1.17156 55.2193 1.41607 55.4574L1.91471 55.9428L1.79648 56.6287C1.73896 56.9651 1.77667 57.3108 1.90533 57.6268C2.034 57.9429 2.24849 58.2166 2.52458 58.4172C2.80066 58.6177 3.12733 58.737 3.46767 58.7616C3.808 58.7862 4.14844 58.7152 4.45051 58.5565L5.06592 58.2326L5.68206 58.5572C5.98416 58.7158 6.3246 58.7867 6.66489 58.762C7.00519 58.7372 7.33179 58.6178 7.60778 58.4172C7.88378 58.2166 8.09817 57.9428 8.22674 57.6268C8.35531 57.3107 8.39293 56.965 8.33535 56.6287L8.21785 55.9436L8.71649 55.4574C8.96103 55.2192 9.13399 54.9172 9.21579 54.5858C9.29759 54.2543 9.28497 53.9066 9.17935 53.5819C9.07373 53.2573 8.87933 52.9687 8.61817 52.7488C8.357 52.5289 8.03949 52.3865 7.70159 52.3378Z" fill="#DB3559"/>
<path d="M52.9971 34.6341L39.3738 21.0107C38.6829 20.3185 37.7806 19.877 36.8102 19.7562C35.8397 19.6354 34.8567 19.8422 34.0172 20.3439L32.2951 18.6218C32.7009 18.0381 33.0028 17.3886 33.1874 16.7021C33.7969 14.4006 34.1949 9.91575 30.0112 5.73202C28.4429 4.23968 26.5294 3.15884 24.4417 2.58596C23.0975 2.22784 21.6827 2.22935 20.3392 2.59035C18.9957 2.95135 17.7707 3.65914 16.787 4.64278C15.8033 5.62643 15.0954 6.85137 14.7343 8.19482C14.3732 9.53828 14.3716 10.9531 14.7296 12.2973C15.3022 14.3854 16.383 16.2991 17.8757 17.8676C19.24 19.3477 20.9836 20.4262 22.9172 20.9861C24.8508 21.546 26.9009 21.5659 28.845 21.0437C29.5187 20.8629 30.1567 20.5686 30.7316 20.1735L32.467 21.9088C31.9765 22.7468 31.778 23.7238 31.9023 24.6868C32.0267 25.6498 32.4671 26.5442 33.1543 27.2301L46.7777 40.8528C47.186 41.2613 47.6708 41.5853 48.2044 41.8064C48.738 42.0275 49.3099 42.1413 49.8874 42.1413C50.465 42.1413 51.0369 42.0275 51.5705 41.8064C52.1041 41.5853 52.5888 41.2613 52.9971 40.8528C53.8214 40.0279 54.2844 38.9095 54.2844 37.7434C54.2844 36.5773 53.8214 35.4589 52.9971 34.6341ZM28.281 18.914C26.0309 19.5111 22.6689 19.5441 19.4333 16.3092C18.2265 15.035 17.3485 13.4858 16.8754 11.7958C16.6137 10.816 16.6116 9.78494 16.8691 8.80404C17.1266 7.82315 17.635 6.92617 18.3442 6.20128C18.8767 5.66987 19.51 5.25007 20.2068 4.96646C20.9036 4.68286 21.6501 4.54117 22.4024 4.54967C22.9199 4.5512 23.4357 4.61206 23.9394 4.73106C25.6295 5.20488 27.1788 6.08302 28.4536 7.28963C31.6849 10.5209 31.654 13.8858 31.0577 16.1381C30.8849 16.8066 30.5362 17.4166 30.0479 17.9048C29.5596 18.3929 28.9495 18.7414 28.281 18.914Z" fill="#DB3559"/>
<path d="M58.5527 7.89094C57.9891 7.32991 57.2378 6.9974 56.4435 6.95755C56.4053 6.16367 56.0729 5.41245 55.5112 4.85017C54.9494 4.28789 54.1985 3.9548 53.4047 3.91577C53.3697 3.29063 53.1545 2.68899 52.7849 2.18356C52.4154 1.67813 51.9074 1.29054 51.3223 1.06762C50.7372 0.844709 50.1001 0.796014 49.4879 0.927422C48.8757 1.05883 48.3147 1.36472 47.8726 1.80812L40.7037 8.97488C39.429 10.2557 38.6549 11.9505 38.5215 13.7525C38.3882 15.5546 38.9044 17.3449 39.9766 18.7993L38.458 20.318C37.6199 19.8276 36.6428 19.6291 35.6798 19.7536C34.7168 19.8781 33.8224 20.3186 33.1367 21.0061L19.5133 34.6281C18.6886 35.4528 18.2254 36.5714 18.2255 37.7377C18.2255 38.904 18.6889 40.0225 19.5137 40.8471C20.3384 41.6718 21.457 42.135 22.6233 42.1349C23.7896 42.1349 24.9081 41.6715 25.7327 40.8468L39.3554 27.2241C40.0474 26.5333 40.4889 25.6312 40.6098 24.661C40.7307 23.6907 40.5242 22.7078 40.0229 21.8683L41.5299 20.3614C42.982 21.4508 44.7786 21.9794 46.5894 21.85C48.4002 21.7206 50.1034 20.9419 51.3859 19.6571L58.5527 12.4903C59.1625 11.8804 59.5051 11.0532 59.5051 10.1906C59.5051 9.32811 59.1625 8.5009 58.5527 7.89094ZM56.9951 10.9327L49.8283 18.0995C48.8161 19.0571 47.4702 19.582 46.077 19.5627C44.6837 19.5434 43.3529 18.9813 42.3677 17.9961C41.3824 17.0108 40.8203 15.68 40.801 14.2867C40.7817 12.8935 41.3066 11.5476 42.2642 10.5354L49.431 3.3694C49.6308 3.17831 49.8966 3.07166 50.1731 3.07166C50.4495 3.07166 50.7154 3.17831 50.9152 3.3694C51.1113 3.56658 51.2214 3.83338 51.2214 4.11148C51.2214 4.38959 51.1113 4.65638 50.9152 4.85357L47.6766 8.08776C47.4759 8.29551 47.3649 8.57377 47.3674 8.8626C47.3699 9.15142 47.4858 9.42771 47.69 9.63195C47.8942 9.83619 48.1705 9.95204 48.4593 9.95455C48.7482 9.95706 49.0264 9.84602 49.2342 9.64537L52.4728 6.40751C52.6725 6.21646 52.9381 6.10984 53.2145 6.10984C53.4908 6.10984 53.7565 6.21646 53.9562 6.40751C54.1528 6.60428 54.2632 6.87107 54.2632 7.14923C54.2632 7.42739 54.1528 7.69417 53.9562 7.89094L50.7176 11.1295C50.517 11.3373 50.4059 11.6156 50.4084 11.9044C50.4109 12.1932 50.5268 12.4695 50.731 12.6737C50.9353 12.878 51.2116 12.9938 51.5004 12.9963C51.7892 12.9988 52.0675 12.8878 52.2752 12.6871L55.5138 9.44855C55.7106 9.25174 55.9776 9.14117 56.2559 9.14117C56.5342 9.14117 56.8012 9.25174 56.998 9.44855C57.1948 9.64537 57.3054 9.9123 57.3054 10.1906C57.3054 10.469 57.1948 10.7359 56.998 10.9327H56.9951Z" fill="#DB3559"/>
</svg>
